<svg width="35" height="34" viewBox="0 0 35 34" fill="none" xmlns="http://www.w3.org/2000/svg">
<path d="M34.5 17C34.5 26.0991 26.9026 33.5 17.5 33.5C8.0974 33.5 0.5 26.0991 0.5 17C0.5 7.90087 8.0974 0.5 17.5 0.5C26.9026 0.5 34.5 7.90087 34.5 17Z" fill="white" stroke="#E9E9E9"/>
<path fill-rule="evenodd" clip-rule="evenodd" d="M10.72 10H26.5C26.7761 10 27 10.2239 27 10.5V11C26.9928 11.8299 26.7687 12.6435 26.35 13.36L24 17.49C23.4915 18.404 22.5357 18.979 21.49 19H15.26C15.0439 18.9954 14.829 18.9652 14.62 18.91L13.62 21H24.5C24.7761 21 25 21.2239 25 21.5V22.5C25 22.7762 24.7761 23 24.5 23H12C11.7263 23.0063 11.4704 22.865 11.33 22.63L11.11 22.25C10.9944 22.0275 10.9944 21.7626 11.11 21.54L12.97 17.84C12.8684 17.7328 12.778 17.6155 12.7 17.49L8.42 10H7.5C7.22386 10 7 9.77616 7 9.50002V8.50002C7 8.22387 7.22386 8.00002 7.5 8.00002H8.42C9.13737 7.99717 9.80132 8.37875 10.16 9.00002L10.72 10ZM13 24C11.8954 24 11 24.8955 11 26C11 27.1046 11.8954 28 13 28C14.1046 28 15 27.1046 15 26C15 24.8955 14.1046 24 13 24ZM25 26C25 27.1046 24.1046 28 23 28C21.8954 28 21 27.1046 21 26C21 24.8955 21.8954 24 23 24C24.1046 24 25 24.8955 25 26Z" fill="#EF6501"/>
</svg>
