<svg width="18" height="16" viewBox="0 0 18 16" fill="none" xmlns="http://www.w3.org/2000/svg">
<path d="M0 0V4.36364H0.75V16H17.25V4.36364H18V0H0ZM1.5 1.45455H16.5V2.90909H1.5V1.45455ZM2.25 4.36364H15.75V14.5455H2.25V4.36364ZM6.60975 5.81818C6.51126 5.82711 6.41555 5.85477 6.32808 5.89956C6.24061 5.94436 6.16309 6.00543 6.09996 6.07928C6.03683 6.15313 5.98931 6.23831 5.96013 6.32996C5.93095 6.42162 5.92067 6.51795 5.92987 6.61345C5.93908 6.70896 5.9676 6.80177 6.0138 6.88659C6.06 6.97141 6.12298 7.04658 6.19913 7.1078C6.35293 7.23143 6.55109 7.29076 6.75 7.27273H11.25C11.4489 7.27273 11.6397 7.1961 11.7803 7.05971C11.921 6.92332 12 6.73834 12 6.54545C12 6.35257 11.921 6.16759 11.7803 6.0312C11.6397 5.89481 11.4489 5.81818 11.25 5.81818H6.75C6.72651 5.81711 6.70299 5.81711 6.6795 5.81818C6.65601 5.81711 6.63324 5.81711 6.60975 5.81818Z" fill="#EF6501"/>
</svg>
