<svg width="32" height="33" viewBox="0 0 32 33" fill="none" xmlns="http://www.w3.org/2000/svg">
<path fill-rule="evenodd" clip-rule="evenodd" d="M5.952 3.48768H31.2C31.6418 3.48768 32 3.84586 32 4.28768V5.08768C31.9884 6.41549 31.6299 7.7172 30.96 8.86368L27.2 15.4717C26.3864 16.934 24.8571 17.854 23.184 17.8877H13.216C12.8702 17.8802 12.5265 17.8319 12.192 17.7437L10.592 21.0877H28C28.4418 21.0877 28.8 21.4459 28.8 21.8877V23.4877C28.8 23.9295 28.4418 24.2877 28 24.2877H8C7.56213 24.2978 7.15264 24.0717 6.928 23.6957L6.576 23.0877C6.391 22.7316 6.391 22.3078 6.576 21.9517L9.552 16.0317C9.38948 15.8601 9.24474 15.6724 9.12 15.4717L2.272 3.48768H0.8C0.358172 3.48768 0 3.12951 0 2.68768V1.08768C0 0.645856 0.358172 0.287684 0.8 0.287684H2.272C3.41979 0.283127 4.48211 0.893655 5.056 1.88768L5.952 3.48768ZM9.6 25.8877C7.83269 25.8877 6.4 27.3204 6.4 29.0877C6.4 30.855 7.83269 32.2877 9.6 32.2877C11.3673 32.2877 12.8 30.855 12.8 29.0877C12.8 27.3204 11.3673 25.8877 9.6 25.8877ZM28.8 29.0877C28.8 30.855 27.3673 32.2877 25.6 32.2877C23.8327 32.2877 22.4 30.855 22.4 29.0877C22.4 27.3204 23.8327 25.8877 25.6 25.8877C27.3673 25.8877 28.8 27.3204 28.8 29.0877Z" fill="white"/>
</svg>
