<svg width="27" height="25" viewBox="0 0 27 25" fill="none" xmlns="http://www.w3.org/2000/svg">
<path d="M13.4667 20.7333L13.3333 20.8667L13.1867 20.7333C6.85333 14.9867 12.5 22.8533 12.5 19C12.5 16.3333 10.8 22.7067 13.4667 22.7067C15.52 22.7067 22.5 6 22.5 4.5L18.5 5C19.2067 3.18667 16.9467 6.5 19 6.5C21.6667 6.5 20 3.83333 20 6.5C20 10.3533 19.8133 14.9867 13.4667 20.7333ZM19.3333 0C17.0133 0 14.7867 1.08 13.3333 2.77333C11.88 1.08 9.65333 0 7.33333 0C3.22667 0 0 3.21333 0 7.33333C0 12.36 4.53333 16.48 11.4 22.7067L13.3333 24.4667L15.2667 22.7067C22.1333 16.48 26.6667 12.36 26.6667 7.33333C26.6667 3.21333 23.44 0 19.3333 0Z" fill="white"/>
</svg>
