<svg width="39" height="38" viewBox="0 0 39 38" fill="none" xmlns="http://www.w3.org/2000/svg">
<path d="M38.5 19C38.5 29.2051 30.0057 37.5 19.5 37.5C8.99427 37.5 0.5 29.2051 0.5 19C0.5 8.7949 8.99427 0.5 19.5 0.5C30.0057 0.5 38.5 8.7949 38.5 19Z" fill="white" stroke="#E9E9E9"/>
<path d="M10.1748 21.212L17.8956 28.1859C18.1696 28.4334 18.3066 28.5571 18.4698 28.5736C18.5032 28.577 18.5369 28.577 18.5702 28.5736C18.7335 28.5571 18.8705 28.4334 19.1445 28.1859L26.8653 21.212C29.1365 19.1604 29.4098 15.6921 27.4879 13.3102L27.2591 13.0267C25.0183 10.2496 20.6544 10.7276 19.0679 13.9239C18.8431 14.3769 18.197 14.3769 17.9722 13.9239C16.3856 10.7276 12.0218 10.2496 9.78097 13.0267L9.55223 13.3102C7.63029 15.6921 7.90355 19.1604 10.1748 21.212Z" stroke="#EF6501" stroke-width="2"/>
</svg>
