<svg width="31" height="32" viewBox="0 0 31 32" fill="none" xmlns="http://www.w3.org/2000/svg">
<path d="M28.128 16H12.5382M24.8459 21.3333L29.769 16L24.8459 10.6667M16.6408 7.11111V5.33333C16.6408 4.39034 16.295 3.48597 15.6795 2.81918C15.064 2.15238 14.2292 1.77778 13.3588 1.77778H5.15363C4.28318 1.77778 3.44838 2.15238 2.83287 2.81918C2.21737 3.48597 1.87158 4.39034 1.87158 5.33333V26.6667C1.87158 27.6097 2.21737 28.514 2.83287 29.1808C3.44838 29.8476 4.28318 30.2222 5.15363 30.2222H13.3588C14.2292 30.2222 15.064 29.8476 15.6795 29.1808C16.295 28.514 16.6408 27.6097 16.6408 26.6667V24.8889" stroke="white" stroke-width="2" stroke-linecap="round" stroke-linejoin="round"/>
</svg>
