<svg width="90" height="50" viewBox="0 0 90 50" fill="none" xmlns="http://www.w3.org/2000/svg">
<g clip-path="url(#clip0_173_84)">
<path d="M85.2 0H4.8C2.14903 0 0 1.90113 0 4.24628V45.7537C0 48.0989 2.14903 50 4.8 50H85.2C87.851 50 90 48.0989 90 45.7537V4.24628C90 1.90113 87.851 0 85.2 0Z" fill="black"/>
<path d="M26.5356 44.7633V42.1253C26.5356 41.1136 25.8396 40.4543 24.6972 40.4543C24.0972 40.4543 23.4552 40.6306 23.0076 41.1974C22.6596 40.7134 22.1676 40.4543 21.4176 40.4543C20.8512 40.4327 20.3103 40.664 19.9776 41.0701V40.5393H19.0332V44.7601H19.9776V42.345C19.9776 41.6019 20.4744 41.2463 21.1704 41.2463C21.8664 41.2463 22.2636 41.6422 22.2636 42.345V44.7633H23.208V42.345C23.208 41.6019 23.7048 41.2463 24.4008 41.2463C25.0968 41.2463 25.494 41.6422 25.494 42.345V44.7633H26.5356ZM42.042 40.586H40.302V39.3121H39.36V40.586H38.3664V41.3291H39.36V43.3121C39.36 44.2792 39.7572 44.8514 40.95 44.8514C41.4019 44.843 41.8447 44.7374 42.24 44.5435L41.9412 43.8004C41.6731 43.9487 41.3621 44.025 41.046 44.0202C40.5492 44.0202 40.3008 43.7558 40.3008 43.3163V41.2951H42.0408V40.5913L42.042 40.586ZM50.8884 40.4543C50.3651 40.444 49.8743 40.6779 49.596 41.0701V40.5393H48.6516V44.7601H49.596V42.3896C49.596 41.6858 49.9932 41.2463 50.64 41.2463C50.8583 41.2541 51.0748 41.2837 51.2856 41.3344L51.5844 40.5425C51.3565 40.4916 51.1232 40.4621 50.8884 40.4543ZM37.5192 40.8938C37.0224 40.586 36.3264 40.4543 35.5812 40.4543C34.3884 40.4543 33.6432 40.9384 33.6432 41.7739C33.6432 42.4777 34.1904 42.8726 35.2332 43.0053L35.73 43.0488C36.2772 43.1369 36.6252 43.3132 36.6252 43.5329C36.6252 43.8408 36.228 44.0637 35.4816 44.0637C34.9117 44.0741 34.3535 43.9198 33.8916 43.6242L33.3948 44.2834C34.0908 44.7229 34.9356 44.8142 35.4348 44.8142C36.8268 44.8142 37.572 44.2431 37.572 43.4512C37.572 42.7081 36.972 42.3524 35.9316 42.2197L35.4348 42.1762C34.9872 42.1327 34.5948 42 34.5948 41.7367C34.5948 41.4289 34.992 41.2059 35.5392 41.2059C36.1392 41.2059 36.732 41.4257 37.0308 41.5573L37.5192 40.8938ZM51.9324 42.6529C51.9324 43.9267 52.8768 44.8514 54.4176 44.8514C55.1136 44.8514 55.6104 44.7197 56.1072 44.3673L55.6104 43.7081C55.2587 43.9601 54.821 44.0996 54.3684 44.104C53.5284 44.104 52.8768 43.5329 52.8768 42.6974C52.8768 41.862 53.52 41.2951 54.3684 41.2951C54.821 41.2995 55.2587 41.4391 55.6104 41.6911L56.1072 41.0318C55.6104 40.6805 55.1136 40.5478 54.4176 40.5478C52.926 40.4597 51.9324 41.3832 51.9324 42.6582V42.6529ZM45.2724 40.4543C43.8804 40.4543 42.936 41.3333 42.936 42.6529C42.936 43.9724 43.9296 44.8514 45.3708 44.8514C46.0719 44.8645 46.7566 44.6627 47.3088 44.2803L46.812 43.6645C46.4127 43.9383 45.925 44.0922 45.42 44.104C44.7744 44.104 44.0784 43.7526 43.98 43.0053H47.5092V42.6539C47.5092 41.3344 46.614 40.4554 45.2724 40.4554V40.4543ZM45.2232 41.2463C45.9192 41.2463 46.416 41.6422 46.4652 42.3015H43.8816C44.0304 41.6858 44.4816 41.2463 45.2232 41.2463ZM32.3508 42.6529V40.5425H31.4064V41.0732C31.0584 40.6773 30.5664 40.4575 29.8656 40.4575C28.524 40.4575 27.5292 41.3811 27.5292 42.656C27.5292 43.931 28.5228 44.8546 29.8656 44.8546C30.5616 44.8546 31.0584 44.6348 31.4064 44.2389V44.7696H32.3508V42.6529ZM28.524 42.6529C28.524 41.8609 29.0712 41.2463 30.0156 41.2463C30.9108 41.2463 31.4556 41.862 31.4556 42.6529C31.4556 43.4883 30.8556 44.0594 30.0156 44.0594C29.0712 44.103 28.524 43.4437 28.524 42.6529ZM65.2536 40.4543C64.7303 40.444 64.2395 40.6779 63.9612 41.0701V40.5393H63.0168V44.7601H63.96V42.3896C63.96 41.6858 64.3572 41.2463 65.004 41.2463C65.2223 41.2541 65.4388 41.2837 65.6496 41.3344L65.9484 40.5425C65.7205 40.4916 65.4872 40.4621 65.2524 40.4543H65.2536ZM61.5756 42.6529V40.5425H60.6312V41.0732C60.2832 40.6773 59.7912 40.4575 59.0904 40.4575C57.7488 40.4575 56.754 41.3811 56.754 42.656C56.754 43.931 57.7476 44.8546 59.0904 44.8546C59.7864 44.8546 60.2832 44.6348 60.6312 44.2389V44.7696H61.5756V42.6529ZM57.7488 42.6529C57.7488 41.8609 58.296 41.2463 59.2404 41.2463C60.1356 41.2463 60.6804 41.862 60.6804 42.6529C60.6804 43.4883 60.0804 44.0594 59.2404 44.0594C58.296 44.103 57.7488 43.4437 57.7488 42.6529ZM71.1684 42.6529V38.8715H70.224V41.0701C69.876 40.6741 69.384 40.4543 68.6832 40.4543C67.3416 40.4543 66.3468 41.3779 66.3468 42.6529C66.3468 43.9278 67.3404 44.8514 68.6832 44.8514C69.3792 44.8514 69.876 44.6316 70.224 44.2357V44.7665H71.1684V42.6529ZM67.3416 42.6529C67.3416 41.8609 67.8888 41.2463 68.8332 41.2463C69.7284 41.2463 70.2732 41.862 70.2732 42.6529C70.2732 43.4883 69.6732 44.0594 68.8332 44.0594C67.8876 44.104 67.3404 43.4448 67.3404 42.6529H67.3416Z" fill="white"/>
<path d="M53.6722 8.53397H36.4258V33.4193H53.6722V8.53397Z" fill="#FF5F00"/>
<path d="M38.1658 20.9766C38.167 16.1266 40.675 11.5433 44.9746 8.53397C37.6392 3.43191 27.1032 4.17354 20.7722 10.2376C14.4412 16.3016 14.4412 25.6517 20.7722 31.7157C27.1032 37.7798 37.6392 38.5214 44.9746 33.4193C40.675 30.41 38.167 25.8267 38.1658 20.9766Z" fill="#EB001B"/>
<path d="M73.9508 20.9766C73.9557 27.0326 70.0504 32.559 63.8942 35.2077C57.7381 37.8563 50.4127 37.1618 45.0308 33.4193C49.3314 30.4108 51.8398 25.827 51.8398 20.9766C51.8398 16.1263 49.3314 11.5425 45.0308 8.53397C50.4127 4.79146 57.7381 4.09697 63.8942 6.74562C70.0504 9.39427 73.9557 14.9207 73.9508 20.9766Z" fill="#F79E1B"/>
</g>
<defs>
<clipPath id="clip0_173_84">
<rect width="90" height="50" fill="white"/>
</clipPath>
</defs>
</svg>
