<svg width="234" height="69" viewBox="0 0 234 69" fill="none" xmlns="http://www.w3.org/2000/svg">
<g clip-path="url(#clip0_17_68)">
<path d="M177.138 27.5274C171.639 25.7479 169.923 24.6947 169.923 22.77C169.923 20.6274 171.834 19.3563 175.227 19.3563C177.996 19.3563 180.765 20.0826 182.832 20.8453L183.729 11.5484C181.194 10.8947 178.113 10.3863 174.759 10.3863C163.644 10.3863 156.507 16.2695 156.507 24.0411C156.429 28.98 159.978 33.6647 169.26 36.6063C174.486 38.2405 175.851 39.2574 175.851 41.3637C175.851 43.5063 174.096 44.85 169.884 44.85C165.789 44.85 160.485 43.1432 157.872 41.6905L155.415 50.9874C158.808 52.6942 163.995 53.8926 169.923 53.8926C182.793 53.8926 189.345 48.1911 189.345 40.3832C189.267 34.2458 185.718 30.2511 177.138 27.5274ZM210.873 43.3247C206.661 43.3247 205.374 41.0368 205.374 35.9889V0L191.724 2.90526V11.2942H186.537L185.601 20.8453H191.763V37.8774C191.763 43.7605 193.05 47.7553 195.624 50.2611C197.808 52.4037 201.552 53.8563 206.037 53.8563C209.976 53.8563 213.252 53.4205 215.085 52.7305L215.007 42.9253C213.993 43.1068 212.628 43.2884 210.873 43.3247ZM206.466 20.8816H215.007V11.2942H206.466V20.8816ZM51.675 32.9021C51.402 26.5105 51.168 18.7753 51.168 11.04H50.895C49.062 17.8311 46.566 25.4211 44.265 31.6311L37.011 52.4037H26.52L20.163 31.7763C18.213 25.53 16.185 17.94 14.781 11.0037H14.625C14.274 18.1579 14.001 26.4016 13.572 33.0474L12.519 53.2389H0L3.783 0.0363158H21.723L27.534 17.7947C29.367 23.9321 31.239 30.6142 32.565 36.8242H32.838C34.515 30.6868 36.543 23.6053 38.493 17.7221L44.85 0.0363158H62.439L65.715 53.2389H52.533L51.675 32.9021ZM125.502 36.3158C125.97 41.6905 131.625 44.2326 138.177 44.2326C142.935 44.2326 146.757 43.6516 150.579 42.5258L152.412 51.3142C147.849 53.0211 142.272 53.8563 136.188 53.8563C120.978 53.8563 112.281 45.6853 112.281 32.6116C112.281 22.0437 119.34 10.35 134.901 10.35C149.409 10.35 154.869 20.8089 154.869 31.1589C154.869 33.3742 154.596 35.3353 154.401 36.2795L125.502 36.3158ZM141.921 27.4184C141.921 24.2589 140.439 18.9932 134.043 18.9932C128.193 18.9932 125.814 23.9321 125.463 27.4184H141.921Z" fill="#0862AF"/>
<path d="M224.562 0.072647L234 16.0879L224.562 32.1758H215.007L224.445 16.0879L214.968 0.072647H224.562C224.562 0.0363312 224.562 0.0363312 224.562 0.072647ZM107.757 69H69.381V60.139H107.757V69ZM80.652 36.2795C81.12 41.6542 86.775 44.1963 93.327 44.1963C98.085 44.1963 101.907 43.6153 105.729 42.4895L107.562 51.2779C102.999 52.9848 97.422 53.82 91.338 53.82C76.128 53.82 67.431 45.649 67.431 32.5753C67.431 22.0074 74.49 10.3137 90.051 10.3137C104.559 10.3137 110.019 20.7726 110.019 31.1226C110.019 33.3379 109.746 35.299 109.551 36.2432H80.652V36.2795ZM97.071 27.3821C97.071 24.2226 95.589 18.9569 89.193 18.9569C83.343 18.9569 80.964 23.8958 80.574 27.3821H97.071Z" fill="#ED1C24"/>
</g>
<defs>
<clipPath id="clip0_17_68">
<rect width="234" height="69" fill="white"/>
</clipPath>
</defs>
</svg>
