<svg width="90" height="50" viewBox="0 0 90 50" fill="none" xmlns="http://www.w3.org/2000/svg">
<g clip-path="url(#clip0_173_74)">
<path d="M86.4 50H3.6C1.61177 50 0 48.5076 0 46.6667V3.33334C0 1.49239 1.61177 0 3.6 0H86.4C88.3882 0 90 1.49239 90 3.33334V46.6667C90 48.5076 88.3882 50 86.4 50Z" fill="#00457C"/>
<path fill-rule="evenodd" clip-rule="evenodd" d="M70.5832 18.3275L68.7688 29.0208C68.7607 29.0695 68.764 29.1193 68.7785 29.1667C68.7931 29.2142 68.8185 29.2581 68.8532 29.2956C68.8878 29.333 68.9308 29.3631 68.9791 29.3837C69.0275 29.4043 69.0801 29.415 69.1333 29.415H70.9585C71.2609 29.415 71.5192 29.2117 71.566 28.935L73.3561 18.4342C73.3645 18.3854 73.3613 18.3355 73.3468 18.288C73.3323 18.2405 73.3068 18.1964 73.2722 18.1589C73.2376 18.1213 73.1945 18.0912 73.1461 18.0705C73.0977 18.0499 73.045 18.0392 72.9916 18.0392H70.9486C70.8607 18.039 70.7756 18.068 70.7087 18.1209C70.6419 18.1737 70.5968 18.2471 70.5832 18.3275ZM47.8213 21.8275H45.6928C45.5924 21.8274 45.4936 21.8502 45.4049 21.8938C45.3162 21.9374 45.2405 22.0005 45.1843 22.0775L42.2476 26.0817L41.0038 22.2333C40.9657 22.116 40.8878 22.0132 40.7816 21.9401C40.6754 21.867 40.5466 21.8275 40.4143 21.8275H38.3218C38.2633 21.8277 38.2056 21.8407 38.1535 21.8656C38.1015 21.8905 38.0566 21.9265 38.0226 21.9706C37.9885 22.0148 37.9664 22.0658 37.9578 22.1194C37.9493 22.1731 37.9547 22.2278 37.9735 22.2792L40.3171 28.65L38.1121 31.53C38.073 31.5812 38.0498 31.6413 38.0451 31.7038C38.0404 31.7664 38.0544 31.8289 38.0856 31.8846C38.1167 31.9403 38.1638 31.9869 38.2216 32.0195C38.2795 32.0521 38.3459 32.0692 38.4136 32.0692H40.5394C40.741 32.0692 40.93 31.9775 41.0452 31.8242L48.1237 22.3633C48.1619 22.3121 48.1843 22.2523 48.1884 22.1901C48.1925 22.128 48.1783 22.0661 48.1472 22.0109C48.116 21.9558 48.0692 21.9096 48.0118 21.8772C47.9544 21.8449 47.8885 21.8277 47.8213 21.8275ZM65.1355 25.6442C64.9312 26.765 63.9709 27.5175 62.7451 27.5175C62.1313 27.5175 61.6381 27.3342 61.3231 26.9875C61.009 26.6442 60.8911 26.155 60.991 25.6108C61.1818 24.5 62.1574 23.7233 63.3643 23.7233C63.9664 23.7233 64.4542 23.9083 64.7764 24.2583C65.1004 24.61 65.2273 25.1025 65.1355 25.6442ZM68.0875 21.8275H65.9689C65.8812 21.8277 65.7964 21.8568 65.7298 21.9097C65.6632 21.9625 65.619 22.0356 65.6053 22.1158L65.5117 22.6642L65.3641 22.4658C64.9051 21.8492 63.8827 21.6425 62.8621 21.6425C60.5221 21.6425 58.5241 23.2842 58.1344 25.5875C57.9319 26.7367 58.2199 27.8342 58.9237 28.6C59.5699 29.3042 60.4915 29.5975 61.5904 29.5975C63.4768 29.5975 64.5226 28.4758 64.5226 28.4758L64.4281 29.0208C64.42 29.0695 64.4233 29.1193 64.4378 29.1667C64.4524 29.2142 64.4778 29.2581 64.5125 29.2956C64.5471 29.333 64.5901 29.3631 64.6384 29.3837C64.6868 29.4043 64.7394 29.415 64.7926 29.415H66.6988C67.0021 29.415 67.2595 29.2117 67.3063 28.935L68.452 22.2217C68.4602 22.173 68.4569 22.1232 68.4424 22.0758C68.4278 22.0283 68.4023 21.9844 68.3677 21.947C68.3331 21.9095 68.2901 21.8794 68.2417 21.8588C68.1934 21.8382 68.1408 21.8275 68.0875 21.8275ZM33.5896 25.6442C33.3853 26.765 32.425 27.5175 31.1992 27.5175C30.5854 27.5175 30.0931 27.3342 29.7772 26.9875C29.464 26.6442 29.3452 26.155 29.4451 25.6108C29.6359 24.5 30.6124 23.7233 31.8184 23.7233C32.4205 23.7233 32.9083 23.9083 33.2314 24.2583C33.5554 24.61 33.6832 25.1025 33.5896 25.6442ZM36.5416 21.8275H34.4239C34.336 21.8275 34.251 21.8565 34.1842 21.9094C34.1174 21.9623 34.0732 22.0355 34.0594 22.1158L33.9658 22.6642L33.8182 22.4658C33.3592 21.8492 32.3368 21.6425 31.3162 21.6425C28.9762 21.6425 26.9782 23.2842 26.5885 25.5875C26.3869 26.7367 26.674 27.8342 27.3778 28.6C28.024 29.3042 28.9456 29.5975 30.0445 29.5975C31.9309 29.5975 32.9767 28.4758 32.9767 28.4758L32.8822 29.0208C32.8741 29.0695 32.8774 29.1193 32.8919 29.1667C32.9065 29.2142 32.9319 29.2581 32.9666 29.2956C33.0012 29.333 33.0442 29.3631 33.0925 29.3837C33.1409 29.4043 33.1935 29.415 33.2467 29.415H35.1538C35.4562 29.415 35.7136 29.2117 35.7604 28.935L36.9061 22.2217C36.9143 22.173 36.911 22.1232 36.8965 22.0758C36.8819 22.0283 36.8564 21.9844 36.8218 21.947C36.7872 21.9095 36.7442 21.8794 36.6958 21.8588C36.6475 21.8382 36.5949 21.8275 36.5416 21.8275ZM23.8318 21.875C23.5906 23.345 22.3783 23.345 21.2047 23.345H20.5387L21.0067 20.6C21.0204 20.5198 21.0646 20.4469 21.1313 20.3941C21.1979 20.3414 21.2827 20.3125 21.3703 20.3125H21.6763C22.4746 20.3125 23.2279 20.3125 23.6176 20.7333C23.8498 20.985 23.92 21.3583 23.8318 21.875ZM23.3215 18.0392H18.8998C18.7533 18.0391 18.6116 18.0875 18.5002 18.1757C18.3888 18.2639 18.3151 18.386 18.2923 18.52L16.504 29.02C16.4957 29.0688 16.4989 29.1186 16.5134 29.1662C16.5279 29.2137 16.5533 29.2577 16.588 29.2953C16.6226 29.3328 16.6656 29.363 16.7141 29.3836C16.7625 29.4043 16.8152 29.415 16.8685 29.415H18.9799C19.2823 29.415 19.5397 29.2117 19.5874 28.935L20.0698 26.1017C20.0926 25.9679 20.1662 25.846 20.2774 25.7579C20.3886 25.6699 20.5301 25.6216 20.6764 25.6217H22.0759C24.9892 25.6217 26.6713 24.3158 27.1105 21.7283C27.3085 20.5975 27.1186 19.7083 26.5462 19.0858C25.9171 18.4017 24.802 18.0392 23.3215 18.0392ZM55.3777 21.875C55.1365 23.345 53.9242 23.345 52.7506 23.345H52.0837L52.5517 20.6C52.5654 20.5198 52.6096 20.4469 52.6763 20.3941C52.7429 20.3414 52.8277 20.3125 52.9153 20.3125H53.2213C54.0205 20.3125 54.7738 20.3125 55.1626 20.7333C55.3957 20.985 55.4659 21.3583 55.3786 21.875M54.8674 18.0392H50.4448C50.2983 18.0391 50.1566 18.0875 50.0452 18.1757C49.9338 18.2639 49.8601 18.386 49.8373 18.52L48.049 29.02C48.0407 29.0687 48.0439 29.1185 48.0583 29.166C48.0728 29.2134 48.0981 29.2574 48.1327 29.295C48.1672 29.3325 48.2101 29.3627 48.2585 29.3834C48.3068 29.4041 48.3594 29.4149 48.4126 29.415H50.6824C50.8939 29.415 51.0739 29.2733 51.1072 29.0792L51.6148 26.1017C51.6376 25.9679 51.7112 25.846 51.8224 25.7579C51.9336 25.6699 52.0751 25.6216 52.2214 25.6217H53.6209C56.5342 25.6217 58.2163 24.3158 58.6555 21.7283C58.8535 20.5975 58.6627 19.7083 58.0912 19.0858C57.4621 18.4017 56.347 18.0392 54.8674 18.0392Z" fill="white"/>
</g>
<defs>
<clipPath id="clip0_173_74">
<rect width="90" height="50" fill="white"/>
</clipPath>
</defs>
</svg>
