<svg width="32" height="33" viewBox="0 0 32 33" fill="none" xmlns="http://www.w3.org/2000/svg">
<path fill-rule="evenodd" clip-rule="evenodd" d="M16 0.287659C7.16344 0.287659 0 7.4511 0 16.2877C0 25.1242 7.16344 32.2877 16 32.2877C24.8366 32.2877 32 25.1242 32 16.2877C32 12.0442 30.3143 7.97453 27.3137 4.97395C24.3131 1.97337 20.2435 0.287659 16 0.287659ZM16 5.08761C18.651 5.08761 20.8 7.23665 20.8 9.88761C20.8 12.5386 18.651 14.6876 16 14.6876C13.349 14.6876 11.2 12.5386 11.2 9.88761C11.2 7.23665 13.349 5.08761 16 5.08761ZM15.9997 27.4666C19.5438 27.4666 22.8788 25.7891 24.9917 22.9437C25.3191 22.4651 25.3619 21.8468 25.1037 21.3277L24.7357 20.5757C23.9306 18.9326 22.2614 17.8901 20.4317 17.8877H11.5677C9.71189 17.8897 8.0235 18.9613 7.23169 20.6397L6.89569 21.3437C6.64371 21.8586 6.68644 22.4689 7.00769 22.9437C9.12059 25.7891 12.4556 27.4666 15.9997 27.4666Z" fill="white"/>
</svg>
