<svg width="30" height="30" viewBox="0 0 30 30" fill="none" xmlns="http://www.w3.org/2000/svg">
<path fill-rule="evenodd" clip-rule="evenodd" d="M23.1206 20.759L29.7861 27.4337C30.0837 27.7649 30.0691 28.2718 29.7527 28.5851L28.5863 29.7532C28.4298 29.9112 28.2169 30 27.9947 30C27.7726 30 27.5596 29.9112 27.4032 29.7532L20.7378 23.0785C20.5534 22.8937 20.3861 22.6927 20.2379 22.4778L18.9881 20.8091C16.9202 22.4626 14.3524 23.3629 11.7061 23.3622C6.25317 23.3811 1.51475 19.6143 0.296158 14.2918C-0.922436 8.96934 1.70402 3.51164 6.62058 1.14986C11.5371 -1.21193 17.4317 0.152521 20.8144 4.43542C24.1972 8.71831 24.1653 14.7766 20.7378 19.0236L22.4041 20.175C22.6643 20.3418 22.9047 20.5377 23.1206 20.759ZM3.37427 11.6814C3.37427 16.2893 7.10453 20.0248 11.706 20.0248C13.9158 20.0248 16.035 19.1457 17.5975 17.5811C19.16 16.0164 20.0378 13.8942 20.0378 11.6814C20.0378 7.07347 16.3075 3.33801 11.706 3.33801C7.10453 3.33801 3.37427 7.07347 3.37427 11.6814Z" fill="#EF6501" fill-opacity="0.8"/>
</svg>
