<svg width="19" height="18" viewBox="0 0 19 18" fill="none" xmlns="http://www.w3.org/2000/svg">
<path d="M6.37288 13.9L9.52288 12L12.6729 13.925L6.72288 10.9385L15 8L5.35 15.225L9.52288 4.2L9 8L15.1729 7.362L7.19788 10.325L6.37288 13.9ZM9.52288 14.35L5.37288 16.85C5.18954 16.9667 4.99788 17.0167 4.79788 17C4.59788 16.9833 4.42288 16.9167 4.27288 16.8C4.12288 16.6833 4.00621 16.5373 3.92288 16.362C3.83954 16.1867 3.82288 15.991 3.87288 15.775L4.97288 11.05L1.29788 7.875C1.13121 7.725 1.02721 7.554 0.985876 7.362C0.944542 7.17 0.956876 6.98267 1.02288 6.8C1.08954 6.61667 1.18954 6.46667 1.32288 6.35C1.45621 6.23333 1.63954 6.15834 1.87288 6.125L6.72288 5.7L8.59788 1.25C8.68121 1.05 8.81054 0.900002 8.98588 0.800002C9.16121 0.700001 9.34021 0.650001 9.52288 0.650001C9.70621 0.650001 9.88521 0.700001 10.0599 0.800002C10.2345 0.900002 10.3639 1.05 10.4479 1.25L12.3229 5.7L17.1729 6.125C17.4062 6.15834 17.5895 6.23333 17.7229 6.35C17.8562 6.46667 17.9562 6.61667 18.0229 6.8C18.0895 6.98334 18.1022 7.171 18.0609 7.363C18.0195 7.555 17.9152 7.72567 17.7479 7.875L14.0729 11.05L15.1729 15.775C15.2229 15.9917 15.2062 16.1877 15.1229 16.363C15.0395 16.5383 14.9229 16.684 14.7729 16.8C14.6229 16.9167 14.4479 16.9833 14.2479 17C14.0479 17.0167 13.8562 16.9667 13.6729 16.85L9.52288 14.35Z" fill="#F2AE14"/>
</svg>
