<svg width="18" height="17" viewBox="0 0 18 17" fill="none" xmlns="http://www.w3.org/2000/svg">
<path d="M4.412 15.125L8.962 12.5L13.512 15.125L12.5 10L16.5 6.5L10.9619 5.92505L8.962 1L6.96192 5.92505L1.312 6.5L5.46192 9.92505L4.412 15.125ZM8.962 13.7L4.812 16.2C4.62867 16.3167 4.437 16.3667 4.237 16.35C4.037 16.3333 3.862 16.2667 3.712 16.15C3.562 16.0333 3.44533 15.8873 3.362 15.712C3.27867 15.5367 3.262 15.341 3.312 15.125L4.412 10.4L0.737001 7.225C0.570334 7.075 0.466334 6.904 0.425001 6.712C0.383667 6.52 0.396001 6.33267 0.462001 6.15C0.528667 5.96667 0.628667 5.81667 0.762001 5.7C0.895334 5.58333 1.07867 5.50833 1.312 5.475L6.162 5.05L8.037 0.6C8.12033 0.4 8.24967 0.25 8.425 0.15C8.60033 0.0500001 8.77933 0 8.962 0C9.14533 0 9.32433 0.0500001 9.499 0.15C9.67367 0.25 9.803 0.4 9.887 0.6L11.762 5.05L16.612 5.475C16.8453 5.50833 17.0287 5.58333 17.162 5.7C17.2953 5.81667 17.3953 5.96667 17.462 6.15C17.5287 6.33333 17.5413 6.521 17.5 6.713C17.4587 6.905 17.3543 7.07567 17.187 7.225L13.512 10.4L14.612 15.125C14.662 15.3417 14.6453 15.5377 14.562 15.713C14.4787 15.8883 14.362 16.034 14.212 16.15C14.062 16.2667 13.887 16.3333 13.687 16.35C13.487 16.3667 13.2953 16.3167 13.112 16.2L8.962 13.7Z" fill="#D9D9D9"/>
</svg>
