<svg width="90" height="50" viewBox="0 0 90 50" fill="none" xmlns="http://www.w3.org/2000/svg">
<g clip-path="url(#clip0_173_94)">
<path d="M4.61538 0H85.3846C87.9337 0 90 1.7909 90 4V46C90 48.2092 87.9337 50 85.3846 50H4.61538C2.06642 50 0 48.2092 0 46V4C0 1.7909 2.06642 0 4.61538 0Z" fill="#0E4595"/>
<path d="M33.8307 34.873L37.68 15.297H43.8369L39.9848 34.873H33.8307ZM62.228 15.719C61.0083 15.3224 59.0968 14.8968 56.71 14.8968C50.6264 14.8968 46.341 17.5518 46.3046 21.3571C46.2701 24.1701 49.364 25.7393 51.6991 26.6757C54.0958 27.6352 54.9013 28.2471 54.89 29.104C54.8748 30.4161 52.9762 31.0156 51.2066 31.0156C48.7424 31.0156 47.4332 30.7189 45.4112 29.988L44.6178 29.677L43.7537 34.0593C45.1918 34.6057 47.851 35.0791 50.612 35.1036C57.0839 35.1036 61.285 32.479 61.333 28.4154C61.356 26.1885 59.7158 24.4938 56.1637 23.0966C54.0118 22.1911 52.6938 21.5867 52.7078 20.6698C52.7078 19.8561 53.8233 18.9859 56.2336 18.9859C58.247 18.9589 59.7055 19.3394 60.8418 19.7359L61.3935 19.9619L62.228 15.719ZM78.0714 15.2967H73.3139C71.8401 15.2967 70.7371 15.6454 70.0899 16.9201L60.9464 34.8601H67.4115C67.4115 34.8601 68.4684 32.4478 68.7075 31.9183C69.4142 31.9183 75.6946 31.9267 76.5926 31.9267C76.7768 32.612 77.3415 34.8601 77.3415 34.8601H83.0546L78.0714 15.2961V15.2967ZM70.5232 27.9377C71.0323 26.8098 72.9763 22.4654 72.9763 22.4654C72.9398 22.5176 73.4815 21.332 73.7925 20.597L74.2085 22.2849C74.2085 22.2849 75.3876 26.9578 75.6339 27.9377H70.5232ZM28.604 15.2967L22.5763 28.6467L21.9339 25.9337C20.8118 22.8064 17.3156 19.4182 13.4072 17.7219L18.9187 34.8419L25.4328 34.8355L35.1256 15.2965H28.604" fill="white"/>
<path d="M16.9522 15.296H7.02438L6.9458 15.7033C14.6694 17.3237 19.78 21.2396 21.902 25.9443L19.7431 16.9483C19.3704 15.7088 18.2896 15.3389 16.9524 15.2956" fill="#F2AE14"/>
</g>
<defs>
<clipPath id="clip0_173_94">
<rect width="90" height="50" fill="white"/>
</clipPath>
</defs>
</svg>
