<svg width="319" height="116" viewBox="0 0 319 116" fill="none" xmlns="http://www.w3.org/2000/svg">
<path fill-rule="evenodd" clip-rule="evenodd" d="M139.626 19.6204C139.626 19.6204 139.626 19.6204 146.344 19.6204C148.813 19.6204 150.019 20.8466 150.019 23.6495C150.019 23.6495 150.019 23.6495 150.019 33.4597C150.019 33.4597 150.019 33.4597 163.168 33.4597C163.168 33.4597 163.168 33.4597 163.168 23.6495C163.168 20.8466 164.373 19.6204 167.13 19.6204C167.13 19.6204 167.13 19.6204 173.56 19.6204C173.56 19.6204 173.56 19.6204 173.56 26.1021C173.56 26.1021 173.56 26.1021 170.804 26.1021L170.517 26.394C170.517 26.394 170.517 26.394 170.517 54.0727C170.517 54.0727 170.517 54.0727 163.168 54.0727C163.168 54.0727 163.168 54.0727 163.168 40.2334C163.168 40.2334 163.168 40.2334 150.019 40.2334C150.019 40.2334 150.019 40.2334 150.019 54.0727C150.019 54.0727 150.019 54.0727 142.669 54.0727C142.669 54.0727 142.669 54.0727 142.669 26.394C142.669 26.394 142.669 26.1021 142.382 26.1021C142.382 26.1021 142.382 26.1021 139.626 26.1021C139.626 26.1021 139.626 26.1021 139.626 19.6204Z" fill="#ED1C24"/>
<path fill-rule="evenodd" clip-rule="evenodd" d="M192.795 19.0366H192.968V26.1607L192.795 26.1023C187.283 26.1023 183.034 30.7154 183.034 36.5547C183.034 42.6861 187.283 47.6496 192.795 47.6496L192.968 47.5912V54.6568L192.795 54.7152C183.034 54.7152 175.053 46.7153 175.053 36.5547C175.053 26.7446 183.034 19.0366 192.795 19.0366Z" fill="#ED1C24"/>
<path fill-rule="evenodd" clip-rule="evenodd" d="M192.968 19.0366L196.355 19.387C204.451 20.9636 210.537 27.9709 210.537 36.5547C210.537 45.4306 204.451 52.6714 196.355 54.3065L192.968 54.6568V47.5912L196.7 46.7737C200.317 45.0802 202.901 41.1679 202.901 36.5547C202.901 32.1752 200.317 28.4964 196.7 26.9198L192.968 26.1607V19.0366Z" fill="#ED1C24"/>
<path fill-rule="evenodd" clip-rule="evenodd" d="M212.03 19.6204C212.03 19.6204 212.03 19.6204 222.308 19.6204H227.189V26.1021H226.729C226.098 26.1021 224.892 26.1021 222.423 26.1021C222.423 26.1021 222.423 26.1021 222.423 33.1677C222.423 33.1677 222.423 33.1677 224.49 33.1677H227.189V39.2991H225.638C224.835 39.2991 223.801 39.2991 222.423 39.2991C222.423 39.2991 222.423 39.2991 222.423 47.007C222.423 47.299 222.423 47.299 222.768 47.299C222.768 47.299 222.768 47.299 224.949 47.299H227.189V54.0727H226.557C225.409 54.0727 223.227 54.0727 218.806 54.0727C216.337 54.0727 215.131 52.8464 215.131 50.1019V26.1021C215.131 26.1021 215.131 26.1021 212.03 26.1021C212.03 26.1021 212.03 26.1021 212.03 19.6204Z" fill="#ED1C24"/>
<path fill-rule="evenodd" clip-rule="evenodd" d="M227.189 19.6204H227.303C234.079 19.6204 238.041 23.3576 238.041 28.905C238.041 32.2334 236.49 34.394 234.998 35.9706C237.754 37.1969 239.534 40.2334 239.534 43.6202C239.534 50.1019 234.653 54.0727 227.648 54.0727C227.648 54.0727 227.648 54.0727 227.533 54.0727H227.189V47.299H227.935C230.404 47.299 231.897 45.7808 231.897 43.3282C231.897 40.8757 230.404 39.2991 227.935 39.2991C227.935 39.2991 227.935 39.2991 227.246 39.2991H227.189V33.1677H227.303C229.485 33.1677 230.691 31.6495 230.691 29.4889C230.691 27.3283 229.485 26.1021 227.303 26.1021C227.303 26.1021 227.303 26.1021 227.246 26.1021H227.189V19.6204Z" fill="#ED1C24"/>
<path fill-rule="evenodd" clip-rule="evenodd" d="M253.601 19.6204C253.601 19.6204 253.601 19.6204 256.701 19.6204H257.276V29.4889C256.989 30.1312 256.644 31.0071 256.644 31.9414C256.644 31.9414 256.644 31.9414 254.232 39.0071C254.232 39.0071 254.232 39.0071 256.816 39.0071H257.276V45.4888H255.611C254.692 45.4888 253.601 45.4888 252.395 45.4888C252.395 45.4888 252.395 45.4888 250.271 51.0362C249.639 53.1384 248.433 54.0727 245.964 54.0727C245.964 54.0727 245.964 54.0727 241.371 54.0727C241.371 54.0727 241.371 54.0727 241.371 47.299C241.371 47.299 241.371 47.299 242.921 47.299C243.553 47.299 243.553 47.299 243.84 47.007C243.84 47.007 243.84 47.007 253.601 19.6204Z" fill="#ED1C24"/>
<path fill-rule="evenodd" clip-rule="evenodd" d="M257.276 19.6204H260.951C260.951 19.6204 260.951 19.6204 270.712 47.007C270.999 47.299 270.999 47.299 271.63 47.299C271.63 47.299 271.63 47.299 272.836 47.299C272.836 47.299 272.836 47.299 272.836 54.0727C272.836 54.0727 272.836 54.0727 268.587 54.0727C266.118 54.0727 264.912 53.1384 264.281 50.6858C264.281 50.6858 264.281 50.6858 262.156 45.4888C262.156 45.4888 262.156 45.4888 258.022 45.4888H257.276V39.0071H260.319C260.319 39.0071 260.319 39.0071 257.907 31.9414C257.907 31.0071 257.563 30.1312 257.276 29.4889V19.6204Z" fill="#ED1C24"/>
<path fill-rule="evenodd" clip-rule="evenodd" d="M139.626 63.8828C139.626 63.8828 139.626 63.8828 166.211 63.8828C168.68 63.8828 170.173 65.1675 170.173 67.912C170.173 67.912 170.173 67.912 170.173 91.2695C170.173 91.5615 170.173 91.5615 170.517 91.5615C170.517 91.5615 170.517 91.5615 172.929 91.5615C172.929 91.5615 172.929 91.5615 172.929 98.3351C172.929 98.3351 172.929 98.3351 166.555 98.3351C163.799 98.3351 162.536 97.1089 162.536 94.3644C162.536 94.3644 162.536 94.3644 162.536 70.7149C162.536 70.7149 162.536 70.3645 162.249 70.3645C162.249 70.3645 162.249 70.3645 150.019 70.3645C150.019 70.3645 150.019 70.3645 150.019 98.3351C150.019 98.3351 150.019 98.3351 142.669 98.3351C142.669 98.3351 142.669 98.3351 142.669 70.3645C142.669 70.3645 142.669 70.3645 139.626 70.3645C139.626 70.3645 139.626 70.3645 139.626 63.8828Z" fill="#ED1C24"/>
<path fill-rule="evenodd" clip-rule="evenodd" d="M192.221 63.2991H192.336V70.4231L192.221 70.3647C186.652 70.3647 182.403 74.9778 182.403 80.8172C182.403 86.9485 186.652 91.912 192.221 91.912L192.336 91.8536V98.9193L192.221 98.9777C182.403 98.9777 174.766 90.9777 174.766 80.8172C174.766 71.007 182.403 63.2991 192.221 63.2991Z" fill="#ED1C24"/>
<path fill-rule="evenodd" clip-rule="evenodd" d="M192.336 63.2991L195.838 63.6494C204.049 65.2261 209.906 72.2333 209.906 80.8172C209.906 89.6931 204.049 96.9339 195.838 98.5689L192.336 98.9193V91.8536L196.24 91.0361C199.858 89.3427 202.269 85.4303 202.269 80.8172C202.269 76.4377 199.858 72.7589 196.24 71.1822L192.336 70.4231V63.2991Z" fill="#ED1C24"/>
<path fill-rule="evenodd" clip-rule="evenodd" d="M211.456 63.8828C211.456 63.8828 211.456 63.8828 218.174 63.8828C220.643 63.8828 221.849 65.1675 221.849 67.912C221.849 67.912 221.849 67.912 221.849 91.2695C221.849 91.5615 221.849 91.5615 222.136 91.5615C222.136 91.5615 222.136 91.5615 230.978 91.5615C230.978 91.5615 230.978 91.5615 230.978 63.8828C230.978 63.8828 230.978 63.8828 238.328 63.8828C238.328 63.8828 238.328 63.8828 238.328 91.5615C238.328 91.5615 238.328 91.5615 247.228 91.5615C247.515 91.5615 247.515 91.5615 247.515 91.2695C247.515 91.2695 247.515 91.2695 247.515 67.912C247.515 65.1675 248.72 63.8828 251.189 63.8828C251.189 63.8828 251.189 63.8828 257.907 63.8828C257.907 63.8828 257.907 63.8828 257.907 70.3645C257.907 70.3645 257.907 70.3645 255.151 70.3645C254.807 70.3645 254.807 70.7149 254.807 70.7149C254.807 70.7149 254.807 70.7149 254.807 94.3644C254.807 97.1089 253.601 98.3351 251.189 98.3351C251.189 98.3351 251.189 98.3351 218.461 98.3351C215.705 98.3351 214.499 97.1089 214.499 94.3644C214.499 94.3644 214.499 94.3644 214.499 70.7149C214.499 70.7149 214.499 70.3645 214.212 70.3645C214.212 70.3645 214.212 70.3645 211.456 70.3645C211.456 70.3645 211.456 70.3645 211.456 63.8828Z" fill="#ED1C24"/>
<path fill-rule="evenodd" clip-rule="evenodd" d="M263.707 63.8828C263.707 63.8828 263.707 63.8828 286.616 63.8828C289.372 63.8828 290.291 65.1675 290.291 67.62C290.291 67.62 290.291 67.62 290.291 73.4594H283.573C283.573 73.4594 283.573 73.4594 283.573 70.7149C283.573 70.3645 283.573 70.3645 283.229 70.3645C283.229 70.3645 283.229 70.3645 278.98 70.3645C278.98 70.3645 278.98 70.3645 278.98 98.3351C278.98 98.3351 278.98 98.3351 271.63 98.3351C271.63 98.3351 271.63 98.3351 271.63 70.3645C271.63 70.3645 271.63 70.3645 267.381 70.3645C267.037 70.3645 267.037 70.3645 267.037 70.7149C267.037 70.7149 267.037 70.7149 267.037 73.4594C267.037 73.4594 267.037 73.4594 260.319 73.4594C260.319 73.4594 260.319 73.4594 260.319 67.62C260.319 65.1675 261.238 63.8828 263.707 63.8828Z" fill="#ED1C24"/>
<path fill-rule="evenodd" clip-rule="evenodd" d="M299.765 63.8828C299.765 63.8828 299.765 63.8828 302.866 63.8828H303.44V73.7514C303.095 74.3937 302.808 75.2696 302.808 76.2039C302.808 76.2039 302.808 76.2039 300.339 83.2695C300.339 83.2695 300.339 83.2695 302.923 83.2695H303.44V89.7512H301.775C300.798 89.7512 299.765 89.7512 298.502 89.7512C298.502 89.7512 298.502 89.7512 296.377 94.9483C295.803 97.4008 294.54 98.3351 292.128 98.3351C292.128 98.3351 292.128 98.3351 287.535 98.3351C287.535 98.3351 287.535 98.3351 287.535 91.5615C287.535 91.5615 287.535 91.5615 289.085 91.5615C289.659 91.5615 289.659 91.5615 290.004 91.2695C290.004 91.2695 290.004 91.2695 299.765 63.9412V63.8828Z" fill="#ED1C24"/>
<path fill-rule="evenodd" clip-rule="evenodd" d="M303.44 63.8828H307.057C307.057 63.8828 307.057 63.8828 316.876 91.2695C317.163 91.5615 317.163 91.5615 317.794 91.5615H319C319 91.5615 319 91.5615 319 98.3351C319 98.3351 319 98.3351 314.751 98.3351C312.282 98.3351 311.076 97.4008 310.445 94.9483C310.445 94.9483 310.445 94.9483 308.32 89.7512C308.32 89.7512 308.32 89.7512 304.186 89.7512H303.44V83.2695H306.483C306.483 83.2695 306.483 83.2695 304.014 76.2039C304.014 75.2696 303.727 74.3937 303.44 73.7514V63.8828Z" fill="#ED1C24"/>
<path fill-rule="evenodd" clip-rule="evenodd" d="M92.5434 34.277C92.8879 34.1602 93.3473 34.3938 93.8066 35.0361C93.8066 35.0361 93.8066 35.0361 114.592 55.5907C115.798 56.817 115.798 58.6856 114.592 59.6199C114.592 59.6199 114.592 59.6199 93.8066 80.5248C93.3473 81.1088 92.8879 81.284 92.5434 81.1088C92.1989 80.9336 91.9692 80.3497 91.9692 79.5905V35.62C91.9692 34.8609 92.1989 34.3938 92.5434 34.277Z" fill="#ED1C24"/>
<path fill-rule="evenodd" clip-rule="evenodd" d="M57.0017 0H58.4946L59.8726 0.583938C59.8726 0.583938 59.8726 0.583938 81.2895 22.1312C82.2082 23.3575 81.8637 24.2334 80.3708 24.2334C80.3708 24.2334 80.3708 24.2334 71.4711 24.2334C69.9782 24.2334 68.715 25.5181 68.715 27.0363C68.715 27.0363 68.715 27.0363 68.715 43.0362C68.715 44.5544 67.5092 45.7807 65.6718 45.7807C65.6718 45.7807 65.6718 45.7807 50.1116 45.7807C48.5613 45.7807 47.3555 44.5544 47.3555 43.0362C47.3555 43.0362 47.3555 43.0362 47.3555 27.0363C47.3555 25.5181 46.1497 24.2334 44.5994 24.2334H35.1255C33.5752 24.2334 33.2881 23.3575 34.2068 22.1312C34.2068 22.1312 34.2068 22.1312 55.6237 0.583938L57.0017 0Z" fill="#ED1C24"/>
<path fill-rule="evenodd" clip-rule="evenodd" d="M23.527 33.8102C23.8715 34.0437 24.1012 34.5693 24.1012 35.3284V80.1748C24.1012 80.9923 23.8715 81.4595 23.527 81.5763C23.1251 81.7514 22.6083 81.5763 21.9767 81.1091C21.9767 81.1091 21.9767 81.1091 0.904333 59.6202C-0.301444 58.6859 -0.301444 56.8173 0.904333 55.591C0.904333 55.591 0.904333 55.591 21.9767 34.3941C22.6083 33.8102 23.1251 33.635 23.527 33.8102Z" fill="#ED1C24"/>
<path fill-rule="evenodd" clip-rule="evenodd" d="M50.1116 69.1384C50.1116 69.1384 50.1116 69.1384 65.6719 69.1384C67.5093 69.1384 68.7725 70.3647 68.7725 71.9413C68.7725 71.9413 68.7725 71.9413 68.7725 88.8171C68.7725 90.6857 69.9782 91.912 71.4711 91.912H79.7393C81.2896 91.912 81.8638 92.7879 80.658 93.7222C80.658 93.7222 80.658 93.7222 59.8727 114.919C59.2411 115.561 58.4946 115.853 57.7482 115.853C57.0018 115.853 56.1979 115.561 55.6237 114.919C55.6237 114.919 55.6237 114.919 34.8384 93.7222C33.5752 92.7879 34.2068 91.912 35.6997 91.912C35.6997 91.912 35.6997 91.912 44.5995 91.912C46.1498 91.912 47.3555 90.6857 47.3555 88.8171C47.3555 88.8171 47.3555 88.8171 47.3555 71.9413C47.3555 70.3647 48.5613 69.1384 50.1116 69.1384Z" fill="#ED1C24"/>
</svg>
